<svg width="1600" height="900" viewBox="0 0 1600 900" fill="none" xmlns="http://www.w3.org/2000/svg" role="img" aria-labelledby="title desc">
  <title id="title">Printer Rental Ortigas hero graphic</title>
  <desc id="desc">A branded Ortigas-themed office printer rental banner for Marga Enterprises.</desc>
  <defs>
    <linearGradient id="bg" x1="210" y1="120" x2="1420" y2="840" gradientUnits="userSpaceOnUse">
      <stop stop-color="#F5F9FF"/>
      <stop offset="0.45" stop-color="#E6F0FF"/>
      <stop offset="1" stop-color="#FFF3E3"/>
    </linearGradient>
    <linearGradient id="panel" x1="230" y1="220" x2="1290" y2="720" gradientUnits="userSpaceOnUse">
      <stop stop-color="#0A3D73"/>
      <stop offset="1" stop-color="#0E63B6"/>
    </linearGradient>
    <linearGradient id="accent" x1="980" y1="286" x2="1218" y2="620" gradientUnits="userSpaceOnUse">
      <stop stop-color="#FFBE63"/>
      <stop offset="1" stop-color="#F08A24"/>
    </linearGradient>
    <filter id="shadow" x="150" y="150" width="1300" height="650" filterUnits="userSpaceOnUse" color-interpolation-filters="sRGB">
      <feFlood flood-opacity="0" result="BackgroundImageFix"/>
      <feColorMatrix in="SourceAlpha" type="matrix" values="0 0 0 0 0 0 0 0 0 0 0 0 0 0 0 0 0 0 127 0" result="hardAlpha"/>
      <feOffset dy="18"/>
      <feGaussianBlur stdDeviation="26"/>
      <feColorMatrix type="matrix" values="0 0 0 0 0.0313725 0 0 0 0 0.184314 0 0 0 0 0.341176 0 0 0 0.18 0"/>
      <feBlend mode="normal" in2="BackgroundImageFix" result="effect1_dropShadow_1_1"/>
      <feBlend mode="normal" in="SourceGraphic" in2="effect1_dropShadow_1_1" result="shape"/>
    </filter>
    <filter id="soft" x="850" y="210" width="470" height="430" filterUnits="userSpaceOnUse" color-interpolation-filters="sRGB">
      <feFlood flood-opacity="0" result="BackgroundImageFix"/>
      <feBlend mode="normal" in="SourceGraphic" in2="BackgroundImageFix" result="shape"/>
      <feGaussianBlur stdDeviation="10" result="effect1_foregroundBlur_1_1"/>
    </filter>
  </defs>

  <rect width="1600" height="900" fill="url(#bg)"/>
  <circle cx="132" cy="142" r="196" fill="#B8D4FF" fill-opacity="0.34"/>
  <circle cx="1484" cy="766" r="212" fill="#FFD8A6" fill-opacity="0.36"/>
  <path d="M0 762C164 696 278 661 433 675C589 690 711 759 853 776C1062 800 1228 683 1414 641C1495 622 1556 626 1600 636V900H0V762Z" fill="#DCEBFF"/>

  <g filter="url(#shadow)">
    <rect x="210" y="182" width="1180" height="560" rx="34" fill="url(#panel)"/>
  </g>

  <g opacity="0.28">
    <path d="M275 247H742" stroke="#9CC8FF" stroke-width="2" stroke-linecap="round"/>
    <path d="M275 279H648" stroke="#9CC8FF" stroke-width="2" stroke-linecap="round"/>
    <path d="M275 311H700" stroke="#9CC8FF" stroke-width="2" stroke-linecap="round"/>
  </g>

  <rect x="276" y="256" width="154" height="40" rx="20" fill="#F08A24"/>
  <text x="353" y="282" text-anchor="middle" font-family="'Trebuchet MS', 'Segoe UI', sans-serif" font-size="18" font-weight="700" letter-spacing="1.6" fill="#FFF7EF">ORTIGAS</text>

  <text x="276" y="372" font-family="Georgia, 'Times New Roman', serif" font-size="78" font-weight="700" fill="#F8FBFF">
    Printer Rental
  </text>
  <text x="276" y="454" font-family="Georgia, 'Times New Roman', serif" font-size="78" font-weight="700" fill="#F8FBFF">
    For Ortigas Offices
  </text>

  <text x="276" y="528" font-family="'Trebuchet MS', 'Segoe UI', sans-serif" font-size="28" fill="#DCEBFF">
    Delivery, setup, maintenance, and flexible plans for
  </text>
  <text x="276" y="568" font-family="'Trebuchet MS', 'Segoe UI', sans-serif" font-size="28" fill="#DCEBFF">
    ADB, Emerald, Julia Vargas, Meralco, and Ortigas Center teams.
  </text>

  <g transform="translate(276 622)">
    <rect width="198" height="54" rx="27" fill="#F7FAFF"/>
    <text x="99" y="34" text-anchor="middle" font-family="'Trebuchet MS', 'Segoe UI', sans-serif" font-size="22" font-weight="700" fill="#0A3D73">Marga Enterprises</text>
  </g>

  <g transform="translate(916 244)">
    <g filter="url(#soft)">
      <rect x="0" y="0" width="356" height="312" rx="30" fill="#F5F9FF" fill-opacity="0.16"/>
    </g>

    <g transform="translate(54 36)">
      <rect x="18" y="60" width="230" height="180" rx="26" fill="#EAF3FF"/>
      <rect x="0" y="146" width="266" height="104" rx="26" fill="#F7FBFF"/>
      <rect x="42" y="22" width="184" height="72" rx="18" fill="url(#accent)"/>
      <rect x="54" y="132" width="162" height="14" rx="7" fill="#BBD8FF"/>
      <rect x="54" y="156" width="116" height="14" rx="7" fill="#BBD8FF"/>
      <rect x="112" y="94" width="42" height="38" rx="8" fill="#0E63B6"/>
      <rect x="126" y="106" width="14" height="14" rx="3" fill="#F5F9FF"/>
      <rect x="80" y="188" width="104" height="54" rx="10" fill="#FFFFFF"/>
      <path d="M98 206H166" stroke="#D4E5FF" stroke-width="8" stroke-linecap="round"/>
      <path d="M98 223H156" stroke="#D4E5FF" stroke-width="8" stroke-linecap="round"/>
    </g>
  </g>

  <g transform="translate(1002 640)">
    <rect width="258" height="62" rx="20" fill="#0A325C" fill-opacity="0.92"/>
    <circle cx="34" cy="31" r="9" fill="#FFBE63"/>
    <text x="58" y="39" font-family="'Trebuchet MS', 'Segoe UI', sans-serif" font-size="22" font-weight="700" fill="#F8FBFF">Office-ready monthly plans</text>
  </g>

  <g opacity="0.16">
    <path d="M1017 141V739" stroke="#0A3D73" stroke-width="2"/>
    <path d="M1084 141V739" stroke="#0A3D73" stroke-width="2"/>
    <path d="M1151 141V739" stroke="#0A3D73" stroke-width="2"/>
    <path d="M1218 141V739" stroke="#0A3D73" stroke-width="2"/>
  </g>
</svg>
